<?xml version="1.0" encoding="UTF-8"?>
<svg version="1.1" xmlns="http://www.w3.org/2000/svg" width="2000" height="731">
<path d="M0 0 C1.03640625 0.36222656 2.0728125 0.72445312 3.140625 1.09765625 C23.84248838 8.92720714 40.0624929 25.14325764 49.27734375 45.01953125 C58.33668604 65.48766086 59.9174914 89.82556455 52 111 C50.26312469 114.75697758 48.28934106 118.34488831 46.1953125 121.9140625 C44.66267654 125.0060555 44.66267654 125.0060555 45.8046875 128.3984375 C46.19914062 129.25695312 46.59359375 130.11546875 47 131 C45.35 130.34 43.7 129.68 42 129 C45.8993401 150.29636446 45.8993401 150.29636446 56.43603516 168.26074219 C61.56791243 170.92299336 66.90779783 171.49367964 72.62109375 171.80126953 C75.87898932 172.07342953 78.53092324 173.10694299 81.5 174.4375 C82.40621094 174.84226563 83.31242187 175.24703125 84.24609375 175.6640625 C113.80865289 190.00504864 137.13063751 213.04443055 149 244 C151.04126521 249.90773555 152.61172681 255.90941539 154 262 C154.24621094 263.04929687 154.49242187 264.09859375 154.74609375 265.1796875 C160.537079 295.29281082 153.44701436 328.37623565 136.51171875 353.828125 C132.92652654 359.01589268 129.23012958 363.84997407 124.75 368.3125 C122.07959884 371.33011644 121.9821287 371.62470266 122.1875 375.9375 C122.77988042 377.62917345 123.38652568 379.31586138 124 381 C124.32033172 382.35464343 124.63067402 383.71166947 124.93359375 385.0703125 C127.16420157 394.14702459 127.16420157 394.14702459 133.53125 400.55859375 C136.92625974 402.29088525 140.45880591 403.67802512 143.99316406 405.09765625 C162.57481111 413.4526158 174.70640747 432.80565778 182 451 C189.27576067 472.5597908 187.57020969 496.46755011 178 517 C173.37202575 525.68884443 167.83563919 532.95191864 161 540 C160.17435547 540.93585938 160.17435547 540.93585938 159.33203125 541.890625 C146.72462182 555.71208127 126.14984153 563.50861131 107.75390625 564.38671875 C81.96202688 565.06634418 59.64923901 558.30654991 40.3527832 540.46777344 C25.02810623 525.60656961 16.12106391 504.51186145 15.65625 483.28051758 C15.50139526 466.4049807 17.22020613 451.50464107 26.49609375 437.06762695 C29.49261189 432.18760348 29.14811852 429.39778945 28 424 C27.30052883 421.41402265 27.30052883 421.41402265 26.4375 419.1875 C25.43680686 416.48227693 25 414.9376745 25 412 C18.12661721 418.8002617 11.63123323 425.90878428 5.5625 433.4375 C1.90428985 437.97316443 -1.94742965 442.2570117 -5.91381836 446.51928711 C-8.90427 449.75193975 -11.73779007 453.06696766 -14.5 456.5 C-18.12811757 461.00923184 -21.95178686 465.26274895 -25.89208984 469.49536133 C-29.89510621 473.82170369 -33.62633591 478.3235032 -37.3203125 482.91796875 C-39 485 -39 485 -40 486 C-40.05170711 488.68570537 -40.04141879 491.346835 -39.9921875 494.03125 C-39.97462251 495.7278581 -39.95771914 497.42447315 -39.94140625 499.12109375 C-39.91087363 501.78421694 -39.8759423 504.44698307 -39.82861328 507.10986328 C-39.57602717 522.11461332 -40.60301626 536.57252355 -45.5625 550.875 C-45.81225586 551.60420654 -46.06201172 552.33341309 -46.31933594 553.0847168 C-57.21038483 583.36376604 -79.39186941 608.23300888 -108.25 622.3125 C-138.36662052 636.40314286 -172.10753952 637.76200853 -203.52563477 626.89575195 C-232.71761679 616.21763946 -257.90818075 593.56855447 -271.29003906 565.44506836 C-284.91981254 535.35086698 -287.24292625 501.28014605 -276 470 C-269.64024064 453.9575954 -260.95988032 440.46751531 -249 428 C-248.23042969 427.16726563 -247.46085937 426.33453125 -246.66796875 425.4765625 C-228.47173676 406.3690491 -199.55500396 391.78111805 -172.85107422 390.93164062 C-167.89803337 390.84537576 -162.95233083 390.89438157 -158 391 C-157.67 388.36 -157.34 385.72 -157 383 C-156.67 383 -156.34 383 -156 383 C-155.505 386.465 -155.505 386.465 -155 390 C-147.83684625 384.39588559 -142.25321989 377.60858096 -136.43554688 370.68652344 C-134.44527603 368.34829368 -132.38362727 366.07915327 -130.3125 363.8125 C-127.30185521 360.4991692 -124.43434822 357.11058071 -121.625 353.625 C-117.94428153 349.07219493 -114.07351352 344.76582589 -110.08862305 340.4831543 C-106.29677168 336.38387343 -102.77595454 332.10270203 -99.27734375 327.75 C-95.98256458 323.77139874 -92.4853545 319.99736433 -88.96875 316.21484375 C-86.34347402 313.28879713 -86.34347402 313.28879713 -86.12109375 309.515625 C-86.22550781 308.43796875 -86.32992187 307.3603125 -86.4375 306.25 C-89.24727179 269.68550309 -82.14410928 236.52656946 -58 208 C-57.32582031 207.18660156 -56.65164063 206.37320313 -55.95703125 205.53515625 C-53.16974617 202.24865593 -50.51923139 199.51373671 -47 197 C-48.47960627 189.68629854 -50.58286903 182.70185419 -52.9375 175.625 C-53.28490234 174.54605469 -53.63230469 173.46710938 -53.99023438 172.35546875 C-54.33248047 171.32292969 -54.67472656 170.29039062 -55.02734375 169.2265625 C-55.33406006 168.29408691 -55.64077637 167.36161133 -55.95678711 166.40087891 C-58.12010225 161.4221658 -61.64467021 160.08707529 -66.4375 157.875 C-87.57853695 147.70077277 -101.41359471 130.41934798 -110 109 C-117.63866153 86.36484857 -115.02531653 62.37161595 -105 41 C-100.72876903 33.03113263 -95.2211861 26.51210487 -89 20 C-88.44828125 19.37351562 -87.8965625 18.74703125 -87.328125 18.1015625 C-66.68320553 -4.48520583 -27.83551012 -10.55949078 0 0 Z M-52 65 C-56.93808899 71.81684778 -57.0431942 79.87600977 -56 88 C-53.40055123 96.81656358 -47.56324377 102.31573896 -39.8125 106.875 C-31.69101931 110.12359228 -24.67123571 109.42651622 -16.64453125 106.2421875 C-9.19260938 102.7418756 -5.53900882 97.65125366 -2.10546875 90.22265625 C0.21753594 83.45064612 0.05499403 76.91375117 -2.5625 70.25 C-6.53359642 62.57254692 -11.81331527 56.98771793 -20 54 C-32.96192117 50.1831497 -43.34796445 55.29170158 -52 65 Z M14.3046875 262.04296875 C9.4621216 268.83893683 7.13964611 275.53985346 8 284 C10.60171402 293.61931023 14.2348474 299.88279502 22.9609375 304.96484375 C29.35823368 308.21251327 35.79530216 309.06785977 42.70703125 307.3125 C51.30439308 304.48983675 56.67801336 300.9828151 60.875 292.875 C64.50973671 285.14817561 65.05444331 278.50132393 62.3125 270.375 C59.16547915 262.43617388 54.615172 257.86593981 47 254 C35.27399462 249.60274798 22.43040777 252.25091414 14.3046875 262.04296875 Z M79.8125 463.3125 C74.31862631 470.1762372 73.36577189 475.74941561 73.59765625 484.49609375 C74.59089727 493.14596945 78.98826549 498.94485334 85.609375 504.37109375 C92.57096258 509.11452842 100.06342546 510.05126841 108.25 508.6015625 C115.46380462 506.67287168 121.3686526 502.0738767 125.41796875 495.8046875 C129.22733274 488.35098613 130.51945383 480.65236827 128.31640625 472.45703125 C124.74240081 463.84086047 119.75949348 458.89309507 111.3671875 454.9453125 C99.77040985 450.31425608 88.03506837 454.30395083 79.8125 463.3125 Z M-193.5 487.75 C-200.59282175 498.38923263 -202.8482977 509.68057125 -200.3515625 522.26953125 C-197.43065462 531.99340832 -191.51291692 540.34112459 -183 546 C-172.26264483 551.63596594 -161.94439063 554.09024146 -149.875 550.9375 C-138.30371066 546.89225251 -130.60036787 539.67752697 -124.6875 529.125 C-119.89472346 518.69244762 -120.06946089 507.57307642 -124 496.9375 C-128.50396329 486.98748369 -135.99679952 479.41832324 -146 475 C-163.66154242 469.06012064 -181.43552493 472.90141529 -193.5 487.75 Z " fill="#FFFEFE" transform="translate(340,75)"/>
<path d="M0 0 C0.6197168 0.30663574 1.23943359 0.61327148 1.87792969 0.92919922 C17.69207431 8.787387 30.96174106 19.16061502 44 31 C44.77085937 31.69738281 45.54171875 32.39476562 46.3359375 33.11328125 C82.62069895 67.69488042 97.57172045 118.18772923 99.125 166.921875 C100.24352829 221.26919068 82.25772339 271.7360127 44.765625 311.171875 C41.3301309 314.68500739 37.83807887 317.93505932 34 321 C33.03578125 321.77859375 32.0715625 322.5571875 31.078125 323.359375 C23.73971922 329.19590513 16.13569768 334.31581043 8 339 C6.87335938 339.65742187 5.74671875 340.31484375 4.5859375 340.9921875 C-23.6517102 357.02992332 -55.67653317 363.44845235 -87.875 363.375 C-88.7746347 363.37445618 -89.67426941 363.37391235 -90.60116577 363.37335205 C-141.49568059 363.23231219 -187.42730033 344.31007224 -223.6875 308.625 C-258.85423751 273.20462412 -275.43258779 223.73741322 -275.32336426 174.5078125 C-275.31977905 173.63898438 -275.31619385 172.77015625 -275.3125 171.875 C-275.31100952 170.97813477 -275.30951904 170.08126953 -275.3079834 169.15722656 C-275.26654361 155.25819869 -274.69333755 141.67364647 -272 128 C-271.7831958 126.86763916 -271.7831958 126.86763916 -271.56201172 125.71240234 C-270.5810021 120.74651642 -269.38264134 115.86869945 -268 111 C-267.70101807 109.94449951 -267.70101807 109.94449951 -267.39599609 108.86767578 C-257.44276124 74.71712323 -237.13062669 42.92534139 -209 21 C-208.2471875 20.35804688 -207.494375 19.71609375 -206.71875 19.0546875 C-182.59356947 -1.35257138 -151.80230436 -12.70639313 -121 -18 C-119.72253906 -18.22558594 -118.44507813 -18.45117188 -117.12890625 -18.68359375 C-77.48991604 -24.47176453 -35.71623085 -18.04860199 0 0 Z M-179.17260742 69.80395508 C-207.92903345 99.60606932 -214.83049247 139.94561766 -214.25390625 179.84765625 C-213.50859508 217.65309115 -200.02531866 252.32363211 -173 279 C-160.9816929 290.25786401 -147.32975188 298.1274981 -132 304 C-131.01644531 304.37898438 -130.03289062 304.75796875 -129.01953125 305.1484375 C-126.0364504 306.21928704 -123.05042219 307.13991855 -120 308 C-118.42605469 308.45052734 -118.42605469 308.45052734 -116.8203125 308.91015625 C-96.66655955 313.65091871 -72.7935748 312.86421947 -53 307 C-51.74316406 306.66097656 -50.48632812 306.32195312 -49.19140625 305.97265625 C-18.34994946 296.80181037 6.59697814 274.7428379 21.8125 246.6875 C41.08291248 209.6241437 43.3048907 159.85163219 31.10717773 120.22412109 C20.69901481 88.15083323 1.19115887 61.74662934 -29.04296875 45.83203125 C-39.0066017 40.80068215 -49.15519808 37.54621871 -60 35 C-60.94875 34.76539063 -61.8975 34.53078125 -62.875 34.2890625 C-105.20307931 25.1620704 -149.02911666 39.54606777 -179.17260742 69.80395508 Z " fill="#FFFFFF" transform="translate(903,254)"/>
<path d="M0 0 C1.50626953 0.86625 1.50626953 0.86625 3.04296875 1.75 C30.55449585 18.51301792 50.10493838 45.56206619 57.73413086 76.79443359 C65.03467629 109.22819761 59.89959333 143.07453333 42.10498047 171.30908203 C24.16225167 198.76629362 -3.2276133 217.80251444 -35.24609375 224.99609375 C-43.70584321 226.72146973 -52.13156676 227.41129394 -60.75756836 227.62231445 C-66.22772289 227.69136497 -66.22772289 227.69136497 -71 230 C-73.08803216 232.24740541 -73.08803216 232.24740541 -75.125 234.9375 C-78.29541471 238.92390669 -81.54377896 242.7584523 -85 246.5 C-88.27418423 250.05670244 -91.40642433 253.67161811 -94.4375 257.4375 C-97.6594418 261.43225324 -101.00666084 265.2454314 -104.5 269 C-109.58649923 274.46951608 -114.32110161 280.17716253 -119 286 C-120.65800479 288.00746716 -122.32789048 290.00425638 -124 292 C-124.99 291.67 -125.98 291.34 -127 291 C-128.00323174 288.66520613 -128.83327125 286.40613513 -129.625 284 C-139.41161069 256.43593332 -158.16053524 232.57070789 -183 217 C-183.61955566 216.61118652 -184.23911133 216.22237305 -184.87744141 215.82177734 C-200.58915937 206.14106156 -216.92561126 200.43968864 -235 197 C-235 192.02246524 -233.938801 191.42685826 -230.5625 187.9375 C-229.63305427 186.95796536 -228.70602258 185.97613524 -227.78125 184.9921875 C-227.31203125 184.49428711 -226.8428125 183.99638672 -226.359375 183.48339844 C-224.32170951 181.25982525 -222.44609906 178.91699883 -220.5625 176.5625 C-216.90364231 172.0260327 -213.05131037 167.741339 -209.08398438 163.47851562 C-206.1129881 160.26718772 -203.30046168 156.97381211 -200.5625 153.5625 C-196.58104137 148.60731507 -192.34261748 143.9487398 -187.98461914 139.32641602 C-182.95125803 133.96773297 -181.72801091 131.01230884 -181.91015625 123.7734375 C-181.93062668 122.0833368 -181.95079848 120.39323246 -181.97070312 118.703125 C-182.01363805 116.06202079 -182.06154023 113.42115603 -182.11645508 110.78027344 C-182.40666958 95.73486768 -181.36994583 81.33602779 -176.375 67 C-176.12411621 66.2670874 -175.87323242 65.5341748 -175.61474609 64.77905273 C-169.47208261 47.63277027 -159.4497987 33.17835835 -147 20 C-146.30261719 19.23816406 -145.60523438 18.47632813 -144.88671875 17.69140625 C-127.84602968 -0.28387271 -102.46760532 -12.00951491 -78 -15 C-77.12601563 -15.10957031 -76.25203125 -15.21914062 -75.3515625 -15.33203125 C-48.97934773 -18.16572195 -23.01702847 -13.23924181 0 0 Z M-90.65625 79.0234375 C-97.97682872 89.79149806 -100.26976092 100.16307398 -98 113 C-94.94184122 124.05325551 -88.53827599 132.43603726 -78.8125 138.5 C-69.6508083 143.48834441 -59.87085507 145.32142059 -49.6015625 142.84375 C-38.04456587 139.09553488 -28.77168381 132.79547369 -23.0625 121.875 C-18.01578288 110.51118525 -17.25908991 99.54750266 -21.67578125 87.78515625 C-23.82965238 83.25503792 -26.58295958 79.64906169 -30 76 C-30.87785156 75.04287109 -30.87785156 75.04287109 -31.7734375 74.06640625 C-39.17194418 66.80837754 -48.38397076 63.75004413 -58.625 63.4375 C-71.10981625 63.91274506 -82.78755143 69.1001343 -90.65625 79.0234375 Z " fill="#FFFFFF" transform="translate(631,31)"/>
<path d="M0 0 C5.17627421 5.36838336 9.38966575 12.16899725 11.75 19.25 C12.21148438 18.64414062 12.67296875 18.03828125 13.1484375 17.4140625 C29.97362772 -4.19932415 52.004176 -17.54383287 79.29760742 -21.08007812 C102.35660462 -23.50192154 129.58048346 -21.73200514 148.67578125 -7.43359375 C151.24325161 -5.34963947 153.53303064 -3.20664173 155.75 -0.75 C156.27980469 -0.2240625 156.80960938 0.301875 157.35546875 0.84375 C169.43124882 13.42601974 173.65998577 31.04346064 175.9375 47.8125 C176.1840332 49.50536133 176.1840332 49.50536133 176.43554688 51.23242188 C178.17228992 63.45993671 178.89758968 75.48203267 178.86352539 87.83105469 C178.86324258 89.25152586 178.86340308 90.67199717 178.8639679 92.09246826 C178.86425222 95.90983085 178.85841502 99.72716136 178.85139394 103.54451656 C178.84509913 107.54833242 178.84455179 111.55214919 178.84336853 115.55596924 C178.84027315 123.12042723 178.83208417 130.68487059 178.82201904 138.24932218 C178.81080191 146.86853964 178.8053334 155.48775784 178.80032361 164.1069808 C178.78989987 181.82133049 178.77157694 199.53566015 178.75 217.25 C160.27 217.25 141.79 217.25 122.75 217.25 C122.73018066 213.15859619 122.71036133 209.06719238 122.68994141 204.85180664 C122.622827 191.28511987 122.54528709 177.71850913 122.46247292 164.15190983 C122.41254838 155.9321023 122.36610487 147.71230375 122.328125 139.49243164 C122.29497686 132.32025305 122.25502358 125.14814856 122.20720994 117.97605222 C122.18216932 114.18552151 122.16032465 110.39503851 122.14665604 106.60444832 C123.37849019 68.52223259 123.37849019 68.52223259 109.2265625 34.453125 C101.39603431 27.02699028 90.80292562 24.93732767 80.328125 25.09765625 C64.98635906 26.00421515 49.24637375 30.52423336 38.46875 42.08984375 C24.0196335 60.24975608 19.65911507 81.96430734 19.54467773 104.6328125 C19.53477814 105.85317703 19.52487854 107.07354156 19.51467896 108.33088684 C19.48862641 111.65468188 19.46670934 114.97845464 19.44667697 118.30228806 C19.42469798 121.78431435 19.39736799 125.26629868 19.37062073 128.74829102 C19.32085396 135.33182987 19.27585623 141.91539222 19.23259836 148.49897671 C19.17822567 156.73502631 19.11743997 164.97102702 19.05664062 173.20703125 C18.94829192 187.88798315 18.84959699 202.56898033 18.75 217.25 C0.6 217.25 -17.55 217.25 -36.25 217.25 C-36.31058594 208.22785156 -36.37117188 199.20570313 -36.43359375 189.91015625 C-36.47415722 184.1451786 -36.51493176 178.38020367 -36.55664062 172.61523438 C-36.62259516 163.49374852 -36.6877637 154.37226264 -36.74731445 145.25073242 C-36.7907191 138.60295193 -36.83712212 131.95519967 -36.88687855 125.30746359 C-36.91303654 121.79949412 -36.93786175 118.29152861 -36.95907402 114.78352547 C-37.04160318 101.29197494 -37.18883738 87.81224743 -37.71899414 74.32983398 C-37.75859725 73.32168923 -37.79820036 72.31354448 -37.83900356 71.27484989 C-38.43961824 57.43025868 -39.23982182 43.47129678 -49.28515625 32.9375 C-56.07513188 27.10595035 -64.60829009 26.1205408 -73.25 25.25 C-74.07242187 25.16492188 -74.89484375 25.07984375 -75.7421875 24.9921875 C-92.89202014 24.12603434 -107.99678386 32.3163282 -120.49609375 43.20703125 C-134.58137492 56.36468558 -143.19604175 75.03902393 -144.4458046 94.2616787 C-144.53313374 97.53071861 -144.56264358 100.79498606 -144.56884766 104.06518555 C-144.58391609 105.91101982 -144.58391609 105.91101982 -144.59928894 107.79414368 C-144.62468642 111.1322652 -144.64165875 114.47022066 -144.65471697 117.80839896 C-144.67046456 121.31044962 -144.69721695 124.81241682 -144.7227478 128.31440735 C-144.76933153 134.92971202 -144.80617362 141.54503275 -144.83942068 148.16041642 C-144.88155873 156.43968449 -144.93686983 164.71885818 -144.9921875 172.99804688 C-145.09068654 187.7486458 -145.16942967 202.49926808 -145.25 217.25 C-163.73 217.25 -182.21 217.25 -201.25 217.25 C-201.25 140.36 -201.25 63.47 -201.25 -15.75 C-183.1 -15.75 -164.95 -15.75 -146.25 -15.75 C-145.92 -3.21 -145.59 9.33 -145.25 22.25 C-141.785 16.805 -141.785 16.805 -138.25 11.25 C-123.48923485 -7.7156122 -103.43316905 -16.77390205 -80.25 -20.75 C-78.85974609 -20.99556641 -78.85974609 -20.99556641 -77.44140625 -21.24609375 C-50.1322436 -24.78536123 -20.42161996 -18.88999847 0 0 Z " fill="#FFFFFF" transform="translate(1256.25,394.75)"/>
<path d="M0 0 C1.55460937 0.54333984 1.55460937 0.54333984 3.140625 1.09765625 C23.84248838 8.92720714 40.0624929 25.14325764 49.27734375 45.01953125 C58.33668604 65.48766086 59.9174914 89.82556455 52 111 C50.26312469 114.75697758 48.28934106 118.34488831 46.1953125 121.9140625 C44.66267654 125.0060555 44.66267654 125.0060555 45.8046875 128.3984375 C46.19914063 129.25695312 46.59359375 130.11546875 47 131 C45.35 130.34 43.7 129.68 42 129 C42.48243164 130.47702393 42.48243164 130.47702393 42.97460938 131.98388672 C44.48579177 136.61337356 45.99346123 141.24400015 47.5 145.875 C47.77222382 146.71146057 48.04444763 147.54792114 48.32492065 148.409729 C52.17244055 160.24228991 55.9403346 172.09211161 59.5 184.01513672 C60.30558489 186.68654571 61.14559505 189.34389157 62 192 C62.19561523 192.68674805 62.39123047 193.37349609 62.59277344 194.08105469 C63.83698619 197.79391214 65.39096262 199.53259583 68.6953125 201.40625 C70.16273385 202.1231873 71.63988747 202.82046688 73.125 203.5 C79.71832615 206.73905823 85.41786932 210.18013506 91 215 C91.81339844 215.62390625 92.62679687 216.2478125 93.46484375 216.890625 C109.46515059 230.20366921 119.27257402 251.97266813 121.23632812 272.46630859 C121.9573933 284.21556354 120.62726416 294.83371621 117 306 C116.62617188 307.15242188 116.25234375 308.30484375 115.8671875 309.4921875 C108.08506647 331.39550829 91.72669209 347.99572511 71 358 C49.92750553 366.89277277 26.3250831 368.31421962 4.8762207 359.69165039 C-3.00668016 356.33351411 -10.13085689 352.14411018 -17 347 C-17.70253906 346.48179687 -18.40507812 345.96359375 -19.12890625 345.4296875 C-32.9299003 334.33313066 -42.72340683 317.07421785 -47 300 C-47.20238281 299.20207031 -47.40476562 298.40414063 -47.61328125 297.58203125 C-52.01521049 277.30920069 -48.29457005 254.67991735 -37.390625 237.1328125 C-33.61676797 228.63103345 -37.41738722 220.76061427 -40.3125 212.5 C-40.76148574 211.19459385 -41.20946457 209.888841 -41.65649414 208.58276367 C-42.60194672 205.82569913 -43.55439081 203.07117259 -44.51074219 200.31787109 C-45.78385093 196.64199225 -47.02607909 192.956472 -48.25770569 189.26651001 C-49.23968693 186.32494093 -50.229188 183.38593173 -51.21981812 180.44726562 C-51.69650813 179.02933732 -52.17067005 177.61055649 -52.64224243 176.19091797 C-53.30379141 174.20372201 -53.97661884 172.22069404 -54.65234375 170.23828125 C-55.03382568 169.10430908 -55.41530762 167.97033691 -55.80834961 166.80200195 C-58.05682241 161.51502749 -61.33449878 160.23023133 -66.4375 157.875 C-87.57853695 147.70077277 -101.41359471 130.41934798 -110 109 C-117.63866153 86.36484857 -115.02531653 62.37161595 -105 41 C-100.72876903 33.03113263 -95.2211861 26.51210487 -89 20 C-88.44828125 19.37351562 -87.8965625 18.74703125 -87.328125 18.1015625 C-66.68320553 -4.48520583 -27.83551012 -10.55949078 0 0 Z M-52 65 C-56.93808899 71.81684778 -57.0431942 79.87600977 -56 88 C-53.40055123 96.81656358 -47.56324377 102.31573896 -39.8125 106.875 C-31.69101931 110.12359228 -24.67123571 109.42651622 -16.64453125 106.2421875 C-9.19260938 102.7418756 -5.53900882 97.65125366 -2.10546875 90.22265625 C0.21753594 83.45064612 0.05499403 76.91375117 -2.5625 70.25 C-6.53359642 62.57254692 -11.81331527 56.98771793 -20 54 C-32.96192117 50.1831497 -43.34796445 55.29170158 -52 65 Z M14.3046875 262.04296875 C9.4621216 268.83893683 7.13964611 275.53985346 8 284 C10.60171402 293.61931023 14.2348474 299.88279502 22.9609375 304.96484375 C29.35823368 308.21251327 35.79530216 309.06785977 42.70703125 307.3125 C51.30439308 304.48983675 56.67801336 300.9828151 60.875 292.875 C64.50973671 285.14817561 65.05444331 278.50132393 62.3125 270.375 C59.16547915 262.43617388 54.615172 257.86593981 47 254 C35.27399462 249.60274798 22.43040777 252.25091414 14.3046875 262.04296875 Z " fill="#FF4136" transform="translate(340,75)"/>
<path d="M0 0 C27.10860837 28.46828778 26.21904703 72.98950931 26.07778788 109.7354517 C26.06509939 113.60575186 26.064096 117.47605676 26.06173706 121.34637451 C26.0555746 128.64142716 26.03923639 135.9364183 26.01903808 143.23144412 C25.99651392 151.55096704 25.98564456 159.87049323 25.97564721 168.19003916 C25.9548641 185.27256756 25.91825523 202.35501147 25.875 219.4375 C7.725 219.4375 -10.425 219.4375 -29.125 219.4375 C-29.17398437 210.68089844 -29.22296875 201.92429687 -29.2734375 192.90234375 C-29.31339641 186.59770637 -29.35452755 180.29308504 -29.39733124 173.98846722 C-29.45241938 165.85178984 -29.50487607 157.71512575 -29.546875 149.57836914 C-29.58017285 143.12907468 -29.62020087 136.67986015 -29.66779006 130.23065478 C-29.69268682 126.82670182 -29.7145685 123.4227993 -29.72834396 120.01878166 C-28.16780275 75.55442104 -28.16780275 75.55442104 -45.0859375 36.19140625 C-52.9080308 29.46320722 -63.6578666 26.80590662 -73.86328125 27.19921875 C-93.02568232 29.21805548 -109.08671285 38.04281324 -121.8125 52.5 C-125.16842919 56.81820279 -127.91774632 61.28761827 -130.4375 66.125 C-130.75098389 66.71095947 -131.06446777 67.29691895 -131.38745117 67.90063477 C-139.21916711 83.8592476 -138.73758115 100.75985267 -138.73250484 118.10865593 C-138.73567137 121.68144472 -138.76136571 125.25407689 -138.78448486 128.82678223 C-138.82476603 135.56590609 -138.84531924 142.3049339 -138.85845876 149.04415941 C-138.87742018 158.16942999 -138.92751822 167.29452917 -138.97570229 176.41968346 C-139.05061216 190.75894656 -139.08449295 205.09800277 -139.125 219.4375 C-157.605 219.4375 -176.085 219.4375 -195.125 219.4375 C-195.125 142.5475 -195.125 65.6575 -195.125 -13.5625 C-176.975 -13.5625 -158.825 -13.5625 -140.125 -13.5625 C-139.795 -1.0225 -139.465 11.5175 -139.125 24.4375 C-135.66 18.9925 -135.66 18.9925 -132.125 13.4375 C-116.76502532 -5.9844333 -95.80101349 -16.5087043 -71.4375 -19.375 C-46.3533002 -20.78965226 -19.05270796 -17.949045 0 0 Z " fill="#FFFFFF" transform="translate(1693.125,392.5625)"/>
<path d="M0 0 C3.51688631 2.7136349 4.41669566 6.50644591 5.70703125 10.5703125 C6.07884773 11.70205399 6.07884773 11.70205399 6.45817566 12.85665894 C7.25149831 15.27674649 8.03245392 17.70060421 8.8125 20.125 C9.32529512 21.70210826 9.83895911 23.27893429 10.35351562 24.85546875 C10.60731995 25.63367981 10.86112427 26.41189087 11.12261963 27.21368408 C11.89562537 29.57365281 12.67669687 31.93085575 13.45800781 34.28808594 C14.50457452 37.45045537 15.49537817 40.62404352 16.45605469 43.81347656 C16.94007658 45.34201193 17.42475075 46.87034095 17.91015625 48.3984375 C18.10849564 49.09856964 18.30683502 49.79870178 18.51118469 50.52005005 C20.13405563 55.48283797 22.31557111 57.37349887 26.76921082 59.65591431 C28.79256354 60.57621447 30.79617608 61.48171658 32.8828125 62.25 C51.29153351 69.64415541 63.91497663 87.84234189 71.5625 105.4140625 C80.09041679 126.6875071 79.08483064 150.71815436 70.50390625 171.7734375 C65.82738444 181.80670247 59.67417214 190.08732525 52 198 C51.44957031 198.62390625 50.89914062 199.2478125 50.33203125 199.890625 C37.72462182 213.71208127 17.14984153 221.50861131 -1.24609375 222.38671875 C-27.03797312 223.06634418 -49.35076099 216.30654991 -68.6472168 198.46777344 C-83.97189377 183.60656961 -92.87893609 162.51186145 -93.34375 141.28051758 C-93.49860474 124.4049807 -91.77979387 109.50464107 -82.50390625 95.06762695 C-80.18296619 91.28782604 -79.63634069 88.56245077 -80.44873047 84.18969727 C-81.52497381 79.91475196 -82.8536351 75.7423984 -84.25 71.5625 C-84.88696677 69.61248482 -85.52236687 67.66195724 -86.15625 65.7109375 C-86.46949219 64.74897461 -86.78273438 63.78701172 -87.10546875 62.79589844 C-88.61202463 58.08708897 -89.9837647 53.34104178 -91.35522461 48.59155273 C-92.42493098 44.90379759 -93.55989978 41.25462762 -94.8125 37.625 C-96 34 -96 34 -96 31 C-95.34153076 31.14002441 -94.68306152 31.28004883 -94.00463867 31.42431641 C-77.61683915 34.68658891 -60.86359043 34.33774898 -45 29 C-44.3409668 28.79101074 -43.68193359 28.58202148 -43.00292969 28.36669922 C-28.11298414 23.61345261 -16.20826958 15.95401772 -5 5 C-4.43152344 4.44699219 -3.86304688 3.89398438 -3.27734375 3.32421875 C-2.17090888 2.23011185 -1.08210525 1.11817542 0 0 Z M-29.1875 121.3125 C-34.68137369 128.1762372 -35.63422811 133.74941561 -35.40234375 142.49609375 C-34.40910273 151.14596945 -30.01173451 156.94485334 -23.390625 162.37109375 C-16.42903742 167.11452842 -8.93657454 168.05126841 -0.75 166.6015625 C6.46380462 164.67287168 12.3686526 160.0738767 16.41796875 153.8046875 C20.22733274 146.35098613 21.51945383 138.65236827 19.31640625 130.45703125 C15.74240081 121.84086047 10.75949348 116.89309507 2.3671875 112.9453125 C-9.22959015 108.31425608 -20.96493163 112.30395083 -29.1875 121.3125 Z " fill="#FF4136" transform="translate(449,417)"/>
<path d="M0 0 C19.14 0 38.28 0 58 0 C58 76.89 58 153.78 58 233 C38.86 233 19.72 233 0 233 C0 156.11 0 79.22 0 0 Z " fill="#FF4135" transform="translate(1911,379)"/>
<path d="M0 0 C19.14 0 38.28 0 58 0 C58 76.89 58 153.78 58 233 C38.86 233 19.72 233 0 233 C0 156.11 0 79.22 0 0 Z " fill="#FFFFFF" transform="translate(1782,379)"/>
<path d="M0 0 C7.96262796 5.47804856 13.25373266 13.21978385 15.453125 22.6171875 C16.55892057 33.45398408 15.08297534 43.6875634 8.4921875 52.6484375 C1.33943068 61.06344553 -7.0505763 66.00960465 -18.14453125 66.91796875 C-28.86968683 67.17048171 -37.4118998 65.52746186 -45.671875 58.3671875 C-54.3678268 49.8105939 -58.26492305 42.14065689 -58.671875 29.7421875 C-58.36599273 18.88336676 -55.15125201 11.64097031 -47.6015625 3.84375 C-34.59764056 -8.04432385 -14.95708795 -8.83827924 0 0 Z " fill="#FF4035" transform="translate(1961.234375,270.3203125)"/>
<path d="M0 0 C8.16193105 5.91875132 13.42864709 13.18826179 16.296875 22.8359375 C17.5963535 34.01145264 16.05944435 44.19978906 9.3359375 53.45703125 C2.32508098 61.84785274 -6.08753296 66.7786013 -17.046875 67.76171875 C-27.5512072 68.03587028 -36.76147788 66.25678495 -44.890625 59.2734375 C-53.12160536 51.09581843 -57.42049386 42.22788478 -57.765625 30.5234375 C-57.43962117 19.92831287 -54.1383679 12.35213452 -46.7265625 4.8359375 C-34.60488329 -6.23408918 -14.2077097 -8.77535011 0 0 Z " fill="#FFFFFF" transform="translate(1831.390625,269.4765625)"/>
</svg>
